<?xml version="1.0" standalone="no"?>
<!DOCTYPE svg PUBLIC "-//W3C//DTD SVG 20010904//EN"
 "http://www.w3.org/TR/2001/REC-SVG-20010904/DTD/svg10.dtd">
<svg version="1.0" xmlns="http://www.w3.org/2000/svg"
 width="512.000000pt" height="512.000000pt" viewBox="0 0 512.000000 512.000000"
 preserveAspectRatio="xMidYMid meet">

<g transform="translate(0.000000,512.000000) scale(0.100000,-0.100000)"
fill="#000000" stroke="none">
<path d="M1303 2937 l-1223 -1222 0 -193 c0 -191 0 -193 25 -217 22 -23 32
-25 120 -25 l95 0 0 -135 c0 -131 1 -137 25 -160 l24 -25 2191 0 2191 0 24 25
c24 23 25 29 25 160 l0 135 95 0 c88 0 98 2 120 25 25 24 25 26 25 217 l0 193
-1223 1222 c-1156 1157 -1224 1223 -1257 1223 -33 0 -101 -66 -1257 -1223z
m240 -239 l-938 -938 -125 0 -125 0 1060 1060 1060 1060 3 -122 3 -122 -938
-938z m3095 -936 l-122 -3 -938 938 -938 938 0 125 0 125 1060 -1060 1060
-1060 -122 -3z m-2036 1681 l38 -37 0 -823 0 -823 -80 0 -80 0 0 822 0 822 37
38 c20 21 39 38 42 38 3 0 22 -17 43 -37z m-282 -885 l0 -683 -342 342 -343
343 340 340 c187 187 341 340 342 340 2 0 3 -307 3 -682z m822 -340 l-342
-343 0 685 0 685 342 -343 343 -342 -343 -342z m-1277 -118 l340 -340 -125 0
-125 0 -280 280 -280 280 60 60 c33 33 62 60 65 60 3 0 158 -153 345 -340z
m1800 280 l60 -60 -280 -280 -280 -280 -125 0 -125 0 340 340 c187 187 342
340 345 340 3 0 32 -27 65 -60z m-2160 -400 l220 -220 -445 0 -445 0 220 220
c121 121 222 220 225 220 3 0 104 -99 225 -220z m2560 0 l220 -220 -445 0
-445 0 220 220 c121 121 222 220 225 220 3 0 104 -99 225 -220z m815 -460 l0
-80 -2320 0 -2320 0 0 80 0 80 2320 0 2320 0 0 -80z m-240 -320 l0 -80 -2080
0 -2080 0 0 80 0 80 2080 0 2080 0 0 -80z"/>
</g>
</svg>
