<?xml version="1.0" standalone="no"?>
<!DOCTYPE svg PUBLIC "-//W3C//DTD SVG 20010904//EN"
 "http://www.w3.org/TR/2001/REC-SVG-20010904/DTD/svg10.dtd">
<svg version="1.0" xmlns="http://www.w3.org/2000/svg"
 width="512.000000pt" height="512.000000pt" viewBox="0 0 512.000000 512.000000"
 preserveAspectRatio="xMidYMid meet">

<g transform="translate(0.000000,512.000000) scale(0.100000,-0.100000)"
fill="#000000" stroke="none">
<path d="M1503 3617 l-1503 -1502 0 -271 c0 -246 2 -274 18 -294 15 -18 52
-29 217 -62 110 -22 202 -42 204 -44 3 -3 -95 -105 -217 -227 l-222 -223 0
-271 c0 -246 2 -273 18 -293 16 -20 132 -45 1041 -227 563 -112 1033 -202
1045 -199 11 3 695 679 1519 1503 l1497 1498 0 273 c0 270 0 273 -23 296 -18
18 -59 29 -217 60 -107 21 -197 40 -199 42 -3 3 95 105 217 227 l222 223 0
268 c0 157 -4 275 -10 286 -5 10 -29 25 -52 34 -47 17 -1991 406 -2029 406
-18 0 -383 -359 -1526 -1503z m1615 1327 c21 -6 -7 -37 -250 -283 -411 -415
-633 -660 -927 -1026 -389 -483 -739 -996 -1061 -1553 -36 -63 -45 -73 -63
-68 -12 3 -139 28 -282 56 -143 28 -267 53 -275 56 -17 6 2797 2824 2820 2824
8 0 25 -3 38 -6z m318 -64 c54 -11 100 -22 102 -25 2 -2 -87 -100 -198 -217
-235 -246 -342 -365 -450 -498 -514 -636 -879 -1362 -1074 -2140 -23 -91 -44
-167 -46 -169 -4 -4 -749 139 -758 145 -6 4 26 61 133 239 388 648 836 1254
1359 1835 101 113 823 850 832 850 1 0 46 -9 100 -20z m477 -95 c81 -16 147
-32 147 -36 0 -4 -120 -120 -266 -259 -332 -316 -434 -431 -591 -665 -237
-355 -401 -789 -458 -1210 -9 -66 -18 -134 -21 -150 -3 -24 -74 -100 -337
-363 l-334 -334 -61 12 c-34 7 -62 15 -62 19 0 31 105 398 160 562 217 647
575 1278 1017 1789 181 209 626 672 643 667 8 -2 81 -17 163 -32z m652 -130
c154 -31 287 -58 295 -61 9 -3 -327 -346 -965 -984 -539 -539 -981 -976 -983
-971 -5 14 37 208 69 321 122 428 367 858 666 1165 129 132 612 585 625 585 7
0 139 -25 293 -55z m-1002 -1857 l-1398 -1398 -3 122 -3 122 1398 1398 1398
1398 3 -122 3 -122 -1398 -1398z m1147 707 c74 -14 142 -28 150 -31 9 -3 -213
-232 -640 -659 -360 -360 -655 -653 -657 -652 -1 2 9 45 22 98 53 208 145 401
278 584 28 39 191 211 361 383 243 244 315 312 331 308 11 -2 81 -16 155 -31z
m-1147 -1827 l-1398 -1398 -3 122 -3 122 1398 1398 1398 1398 3 -122 3 -122
-1398 -1398z m-103 718 c-34 -102 -76 -283 -86 -372 l-6 -61 -657 -657 -657
-657 -95 17 c-52 10 -95 18 -97 19 -12 7 88 237 154 355 39 69 49 80 72 80 22
0 146 120 711 685 377 376 687 683 688 681 2 -1 -10 -42 -27 -90z m-2352 -602
l892 -179 0 -158 c0 -148 -1 -158 -18 -155 -10 2 -424 84 -920 183 l-902 180
0 159 0 158 28 -5 c15 -3 429 -85 920 -183z m-131 -457 c2 -2 -9 -30 -23 -63
-15 -32 -50 -131 -80 -219 -29 -88 -57 -159 -61 -158 -4 1 -127 24 -273 53
-146 28 -272 53 -279 56 -10 3 51 71 183 203 l198 198 165 -34 c92 -18 168
-35 170 -36z m553 -108 c195 -39 357 -72 359 -74 2 -2 -24 -57 -57 -122 -33
-65 -74 -158 -93 -208 -18 -49 -36 -93 -39 -98 -5 -6 -708 128 -717 137 -4 3
60 201 90 276 51 132 66 160 84 160 10 0 178 -32 373 -71z m-422 -555 l892
-179 0 -159 c0 -146 -1 -158 -17 -154 -10 3 -424 85 -920 184 l-903 179 0 159
0 158 28 -5 c15 -3 429 -85 920 -183z"/>
</g>
</svg>
