<?xml version="1.0" standalone="no"?>
<!DOCTYPE svg PUBLIC "-//W3C//DTD SVG 20010904//EN"
 "http://www.w3.org/TR/2001/REC-SVG-20010904/DTD/svg10.dtd">
<svg version="1.0" xmlns="http://www.w3.org/2000/svg"
 width="512.000000pt" height="512.000000pt" viewBox="0 0 512.000000 512.000000"
 preserveAspectRatio="xMidYMid meet">

<g transform="translate(0.000000,512.000000) scale(0.100000,-0.100000)"
fill="#000000" stroke="none">
<path d="M2512 4416 c-1479 -429 -2433 -710 -2450 -722 -34 -25 -62 -79 -62
-119 0 -75 70 -145 145 -145 23 0 197 45 391 101 3304 954 4466 1292 4501
1309 47 22 83 78 83 130 0 77 -75 151 -152 149 -18 -1 -1123 -317 -2456 -703z"/>
<path d="M4515 4376 c-154 -45 -288 -85 -297 -89 -17 -6 -18 -36 -18 -444 0
-417 -1 -440 -20 -470 -39 -64 -28 -63 -572 -63 -471 0 -494 1 -525 20 -60 36
-63 51 -63 345 0 146 -2 265 -5 265 -3 0 -450 -129 -993 -286 -1289 -373
-1673 -484 -1694 -490 -17 -5 -18 -62 -18 -1005 l0 -999 1355 0 1355 0 0 868
c0 842 1 868 20 899 43 71 19 68 570 68 551 0 527 3 570 -68 19 -31 20 -57 20
-899 l0 -868 305 0 305 0 0 1650 c0 908 -3 1650 -7 1649 -5 0 -134 -38 -288
-83z m-2178 -1396 c65 -39 63 -12 63 -722 0 -620 -1 -644 -20 -675 -39 -65
-13 -63 -720 -63 -707 0 -681 -2 -720 63 -19 31 -20 55 -20 675 0 710 -2 683
63 722 31 19 55 20 677 20 622 0 646 -1 677 -20z"/>
<path d="M1210 2555 l0 -156 153 3 152 3 3 153 3 152 -156 0 -155 0 0 -155z"/>
<path d="M1802 2558 l3 -153 155 0 155 0 3 153 3 152 -161 0 -161 0 3 -152z"/>
<path d="M1210 1960 l0 -150 155 0 155 0 0 150 0 150 -155 0 -155 0 0 -150z"/>
<path d="M1800 1960 l0 -150 160 0 160 0 0 150 0 150 -160 0 -160 0 0 -150z"/>
<path d="M3600 4112 l-295 -87 -3 -212 -2 -213 305 0 305 0 0 300 c0 165 -3
300 -7 299 -5 0 -141 -40 -303 -87z"/>
<path d="M3307 2703 c-4 -3 -7 -352 -7 -775 l0 -768 305 0 305 0 0 775 0 775
-298 0 c-164 0 -302 -3 -305 -7z"/>
<path d="M310 487 c0 -382 0 -384 23 -417 12 -18 38 -41 57 -51 33 -18 89 -19
1332 -19 l1298 0 -2 433 -3 432 -1352 3 -1353 2 0 -383z"/>
<path d="M3307 863 c-4 -3 -7 -64 -7 -135 l0 -128 305 0 305 0 0 135 0 135
-298 0 c-164 0 -302 -3 -305 -7z"/>
<path d="M4207 863 c-4 -3 -7 -199 -7 -435 l0 -428 248 0 c276 0 294 4 340 70
22 33 22 35 22 416 l0 384 -298 0 c-164 0 -302 -3 -305 -7z"/>
<path d="M3307 303 c-4 -3 -7 -73 -7 -155 l0 -148 305 0 305 0 0 155 0 155
-298 0 c-164 0 -302 -3 -305 -7z"/>
</g>
</svg>
