<?xml version="1.0" standalone="no"?>
<!DOCTYPE svg PUBLIC "-//W3C//DTD SVG 20010904//EN"
 "http://www.w3.org/TR/2001/REC-SVG-20010904/DTD/svg10.dtd">
<svg version="1.0" xmlns="http://www.w3.org/2000/svg"
 width="512.000000pt" height="512.000000pt" viewBox="0 0 512.000000 512.000000"
 preserveAspectRatio="xMidYMid meet">

<g transform="translate(0.000000,512.000000) scale(0.100000,-0.100000)"
fill="#000000" stroke="none">
<path d="M63 5104 c-31 -15 -63 -65 -63 -98 0 -31 28 -84 52 -98 16 -9 82 -15
218 -18 l195 -5 0 -115 0 -115 -80 -5 c-44 -3 -90 -11 -102 -18 -28 -15 -283
-520 -283 -558 0 -30 22 -75 46 -95 13 -11 64 -15 218 -19 l201 -5 0 -115 0
-115 -80 -5 c-44 -3 -90 -11 -102 -18 -28 -15 -283 -520 -283 -558 0 -30 22
-75 46 -95 13 -11 64 -15 218 -19 l201 -5 0 -115 0 -115 -80 -5 c-46 -3 -90
-11 -103 -20 -15 -10 -71 -109 -154 -275 -116 -231 -129 -264 -125 -298 7 -48
39 -84 86 -97 20 -5 114 -10 209 -10 l173 0 -3 -113 -3 -112 -80 -5 c-46 -3
-90 -11 -103 -20 -15 -10 -71 -109 -154 -275 -116 -231 -129 -264 -125 -298 7
-48 39 -84 86 -97 20 -5 114 -10 209 -10 l173 0 -3 -112 -3 -113 -82 -5 c-69
-4 -86 -9 -108 -30 -15 -14 -83 -137 -152 -275 -110 -221 -124 -254 -120 -288
3 -21 14 -48 24 -59 36 -41 73 -48 263 -48 l180 0 0 -76 c0 -89 19 -126 75
-144 47 -15 86 -5 120 30 25 26 29 39 33 110 l5 80 1628 0 1629 0 0 -79 c0
-73 2 -81 28 -109 36 -39 88 -50 134 -28 47 23 61 51 66 138 l4 77 192 3 c208
3 229 9 254 64 26 55 15 87 -113 344 -146 291 -145 290 -262 290 l-73 0 0 114
0 114 193 4 c209 3 230 9 255 64 26 55 15 87 -113 344 -146 291 -145 290 -262
290 l-73 0 0 114 0 114 188 4 c202 3 241 12 259 60 5 14 10 -70 13 -207 6
-255 9 -268 72 -301 37 -19 91 -13 121 13 49 44 47 -25 47 1658 l0 1575 70 0
c86 0 126 18 146 65 18 44 18 59 -2 100 -33 71 186 65 -2546 65 -2216 0 -2466
-2 -2495 -16z m3892 -334 l0 -115 -1627 -3 -1628 -2 0 120 0 120 1628 -2 1627
-3 0 -115z m694 -267 l0 -388 -124 246 c-79 157 -134 254 -151 268 -22 17 -40
21 -105 21 l-79 0 0 120 0 120 230 0 230 0 -1 -387z m0 -895 l0 -423 -124 246
c-79 157 -134 254 -151 268 -22 17 -40 21 -105 21 l-79 0 0 120 0 120 196 0
196 0 31 34 c18 18 33 34 35 35 1 0 2 -189 1 -421z m-694 232 l0 -115 -1627
-3 -1628 -2 0 120 0 120 1628 -2 1627 -3 0 -115z m695 -1165 l0 -426 -124 248
c-68 137 -134 257 -146 268 -18 16 -39 21 -106 24 l-84 3 0 119 0 119 196 0
196 0 31 34 c18 18 33 34 35 35 1 0 2 -190 2 -424z m-695 235 l0 -115 -1627
-3 -1628 -2 0 120 0 120 1628 -2 1627 -3 0 -115z m5 -935 l0 -115 -1630 0
-1630 0 0 115 0 115 1630 0 1630 0 0 -115z m0 -930 l0 -115 -1630 0 -1630 0 0
115 0 115 1630 0 1630 0 0 -115z"/>
</g>
</svg>
